<svg width="32" height="32" viewBox="0 0 32 32" fill="none" xmlns="http://www.w3.org/2000/svg">
<path fill-rule="evenodd" clip-rule="evenodd" d="M31.266 8.26397C31.4873 7.53599 31.266 7 30.206 7H26.7061C25.8155 7 25.4048 7.46266 25.1821 7.97331C25.1821 7.97331 23.4022 12.2346 20.8809 15.0025C20.0649 15.8051 19.6943 16.0598 19.2489 16.0598C19.0263 16.0598 18.6916 15.8052 18.6916 15.0758V8.26397C18.6916 7.38933 18.4463 7 17.705 7H12.2011C11.6451 7 11.3104 7.40532 11.3104 7.79065C11.3104 8.61863 12.5717 8.81063 12.7011 11.1412V16.2051C12.7011 17.3158 12.4971 17.5171 12.0517 17.5171C10.8651 17.5171 7.9785 13.2359 6.2652 8.33731C5.93321 7.38399 5.59722 7 4.70257 7H1.19997C0.199996 7 0 7.46266 0 7.97331C0 8.88263 1.18664 13.3999 5.52655 19.3744C8.41982 23.4543 12.4931 25.6663 16.2037 25.6663C18.4289 25.6663 18.7036 25.1756 18.7036 24.329V21.245C18.7036 20.2624 18.9143 20.0664 19.6196 20.0664C20.1396 20.0664 21.0289 20.3224 23.1062 22.289C25.4795 24.621 25.8701 25.6663 27.2061 25.6663H30.706C31.706 25.6663 32.2073 25.1756 31.9193 24.205C31.602 23.2397 30.4687 21.8384 28.9661 20.1757C28.1501 19.2291 26.9261 18.2091 26.5541 17.6984C26.0355 17.0438 26.1835 16.7518 26.5541 16.1691C26.5541 16.1691 30.8207 10.2679 31.2647 8.26397H31.266Z" fill="white"/>
</svg>
