<svg width="32" height="32" viewBox="0 0 32 32" fill="none" xmlns="http://www.w3.org/2000/svg">
<path d="M27.6138 4.20601C27.6138 4.20601 30.2038 3.19602 29.9871 5.64865C29.9158 6.65864 29.2685 10.1939 28.7645 14.0172L27.0378 25.3437C27.0378 25.3437 26.8938 27.003 25.5985 27.2917C24.3039 27.5797 22.3612 26.2817 22.0012 25.993C21.7132 25.7764 16.6053 22.5297 14.8067 20.9431C14.3027 20.5098 13.7267 19.6445 14.8787 18.6345L22.4326 11.4199C23.2959 10.5546 24.1592 8.53461 20.5619 10.9872L10.4887 17.8405C10.4887 17.8405 9.33742 18.5625 7.17945 17.9131L2.50219 16.4698C2.50219 16.4698 0.775547 15.3878 3.7255 14.3059C10.9207 10.9152 19.7706 7.45263 27.6125 4.20601H27.6138Z" fill="white"/>
</svg>
