<svg width="16" height="16" viewBox="0 0 16 16" fill="none" xmlns="http://www.w3.org/2000/svg">
<path id="Vector" d="M11.1584 9.69414L10.7541 10.0968C10.7541 10.0968 9.79173 11.0532 7.16582 8.4417C4.5399 5.83017 5.50229 4.87373 5.50229 4.87373L5.75644 4.61951C6.38471 3.99551 6.44425 2.99285 5.89596 2.26041L4.77628 0.764421C4.09736 -0.14224 2.78663 -0.262239 2.00907 0.51109L0.613918 1.89775C0.22914 2.28174 -0.0285643 2.77774 0.00253794 3.32885C0.082515 4.73951 0.720554 7.77326 4.27864 11.3128C8.05267 15.0657 11.5939 15.215 13.0415 15.0799C13.5 15.0372 13.8981 14.8043 14.2189 14.4843L15.4808 13.2292C16.3339 12.3821 16.0939 10.9288 15.0027 10.3359L13.3054 9.41236C12.5891 9.02303 11.7183 9.1377 11.1584 9.69414Z" fill="#111111"/>
</svg>
