<svg width="16" height="10" viewBox="0 0 16 10" fill="none" xmlns="http://www.w3.org/2000/svg">
<path id="Vector" fill-rule="evenodd" clip-rule="evenodd" d="M15.6286 0.964995C15.7393 0.601002 15.6286 0.333008 15.0988 0.333008H13.3493C12.9041 0.333008 12.6988 0.564336 12.5875 0.819664C12.5875 0.819664 11.6978 2.95029 10.4375 4.33426C10.0296 4.73558 9.84437 4.86291 9.62177 4.86291C9.51047 4.86291 9.34319 4.73558 9.34319 4.37092V0.964995C9.34319 0.52767 9.22056 0.333008 8.85 0.333008H6.09883C5.82091 0.333008 5.65363 0.53567 5.65363 0.728333C5.65363 1.14232 6.28411 1.23832 6.34875 2.40363V4.93558C6.34875 5.4909 6.24679 5.59156 6.02419 5.59156C5.43103 5.59156 3.98813 3.45094 3.13172 1.00166C2.96577 0.525004 2.79782 0.333008 2.35063 0.333008H0.599819C0.0999699 0.333008 0 0.564336 0 0.819664C0 1.27432 0.593155 3.53294 2.7625 6.52021C4.20873 8.56017 6.24479 9.66615 8.09956 9.66615C9.21189 9.66615 9.34918 9.42082 9.34918 8.99749V7.45553C9.34918 6.9642 9.45449 6.8662 9.80705 6.8662C10.067 6.8662 10.5115 6.9942 11.5499 7.97751C12.7362 9.14349 12.9314 9.66615 13.5992 9.66615H15.3487C15.8486 9.66615 16.0992 9.42082 15.9552 8.93549C15.7966 8.45284 15.2301 7.75219 14.479 6.92087C14.0711 6.44755 13.4593 5.93756 13.2733 5.68223C13.0141 5.3549 13.0881 5.20891 13.2733 4.91758C13.2733 4.91758 15.406 1.96697 15.628 0.964995H15.6286Z" fill="#1E1E1E"/>
</svg>
